<svg id="SvgjsSvg1145" xmlns="http://www.w3.org/2000/svg" version="1.1" xmlns:xlink="http://www.w3.org/1999/xlink" xmlns:svgjs="http://svgjs.com/svgjs" width="948.25" height="589"><defs id="SvgjsDefs1146"></defs><g id="SvgjsG1147" transform="translate(33.5,278.75)"><path id="SvgjsPath1148" d="M0 4Q0 0 4 0L226.3943454345648 0Q230.3943454345648 0 230.3943454345648 4L230.3943454345648 78Q230.3943454345648 82 226.3943454345648 82L4 82Q0 82 0 78Z " stroke="none" fill-opacity="1" fill="#464353"></path><g id="SvgjsG1149"><text id="SvgjsText1150" font-family="微软雅黑" text-anchor="middle" font-size="20px" width="143" fill="#ffffff" font-weight="700" align="middle" font-style="" opacity="1" y="13" transform="rotate(0)"><tspan id="SvgjsTspan1151" dy="25" x="116"><tspan id="SvgjsTspan1152" style="text-decoration:;">Forest动态代理</tspan></tspan><tspan id="SvgjsTspan1153" dy="25" x="116"><tspan id="SvgjsTspan1154" style="text-decoration:;">处理器</tspan></tspan></text></g></g><g id="SvgjsG1155" transform="translate(70,39.75)"><path id="SvgjsPath1156" d="M0 0L160 0L160 40L0 40Z " stroke="none" fill="none"></path><g id="SvgjsG1157"><text id="SvgjsText1158" font-family="微软雅黑" text-anchor="middle" font-size="20px" width="130" fill="#ffffff" font-weight="700" align="middle" font-style="" opacity="1" y="4.5" transform="rotate(0)"><tspan id="SvgjsTspan1159" dy="25" x="80.5"><tspan id="SvgjsTspan1160" style="text-decoration:;">Java 接口方法</tspan></tspan></text></g></g><g id="SvgjsG1161" transform="translate(315.19717271728246,25)"><path id="SvgjsPath1162" d="M0 4Q0 0 4 0L275 0Q279 0 279 4L279 534.75Q279 538.75 275 538.75L4 538.75Q0 538.75 0 534.75Z " stroke="none" fill-opacity="1" fill="#464353"></path><g id="SvgjsG1163"><text id="SvgjsText1164" font-family="黑体" text-anchor="middle" font-size="20px" width="0" fill="#ffffff" font-weight="700" align="middle" font-style="" opacity="1" y="253.875" transform="rotate(0)"></text></g></g><g id="SvgjsG1165" transform="translate(345.44717271728246,97.875)"><path id="SvgjsPath1166" d="M0 4Q0 0 4 0L214 0Q218 0 218 4L218 63Q218 67 214 67L4 67Q0 67 0 63Z " stroke="none" fill-opacity="1" fill="#25c2a0"></path><g id="SvgjsG1167"><text id="SvgjsText1168" font-family="微软雅黑" text-anchor="middle" font-size="20px" width="143" fill="#ffffff" font-weight="700" align="middle" font-style="" opacity="1" y="18" transform="rotate(0)"><tspan id="SvgjsTspan1169" dy="25" x="109.5"><tspan id="SvgjsTspan1170" style="text-decoration:;">创建Forest请求</tspan></tspan></text></g></g><g id="SvgjsG1171" transform="translate(370,33.75)"><path id="SvgjsPath1172" d="M0 0L160 0L160 40L0 40Z " stroke="none" fill="none"></path><g id="SvgjsG1173"><text id="SvgjsText1174" font-family="微软雅黑" text-anchor="middle" font-size="20px" width="103" fill="#ffffff" font-weight="700" align="middle" font-style="" opacity="1" y="4.5" transform="rotate(0)"><tspan id="SvgjsTspan1175" dy="25" x="80.5"><tspan id="SvgjsTspan1176" style="text-decoration:;">Forest前端</tspan></tspan></text></g></g><g id="SvgjsG1177" transform="translate(345.44717271728246,186.25)"><path id="SvgjsPath1178" d="M0 4Q0 0 4 0L214 0Q218 0 218 4L218 63Q218 67 214 67L4 67Q0 67 0 63Z " stroke="none" fill-opacity="1" fill="#25c2a0"></path><g id="SvgjsG1179"><text id="SvgjsText1180" font-family="微软雅黑" text-anchor="middle" font-size="20px" width="100" fill="#ffffff" font-weight="700" align="middle" font-style="" opacity="1" y="18" transform="rotate(0)"><tspan id="SvgjsTspan1181" dy="25" x="109.5"><tspan id="SvgjsTspan1182" style="text-decoration:;">拦截器调用</tspan></tspan></text></g></g><g id="SvgjsG1183" transform="translate(345.44717271728246,276.25)"><path id="SvgjsPath1184" d="M0 4Q0 0 4 0L214 0Q218 0 218 4L218 63Q218 67 214 67L4 67Q0 67 0 63Z " stroke="none" fill-opacity="1" fill="#25c2a0"></path><g id="SvgjsG1185"><text id="SvgjsText1186" font-family="微软雅黑" text-anchor="middle" font-size="20px" width="80" fill="#ffffff" font-weight="700" align="middle" font-style="" opacity="1" y="18" transform="rotate(0)"><tspan id="SvgjsTspan1187" dy="25" x="109.5"><tspan id="SvgjsTspan1188" style="text-decoration:;">请求日志</tspan></tspan></text></g></g><g id="SvgjsG1189" transform="translate(345.44717271728246,366.75)"><path id="SvgjsPath1190" d="M0 4Q0 0 4 0L214 0Q218 0 218 4L218 63Q218 67 214 67L4 67Q0 67 0 63Z " stroke="none" fill-opacity="1" fill="#25c2a0"></path><g id="SvgjsG1191"><text id="SvgjsText1192" font-family="微软雅黑" text-anchor="middle" font-size="20px" width="80" fill="#ffffff" font-weight="700" align="middle" font-style="" opacity="1" y="18" transform="rotate(0)"><tspan id="SvgjsTspan1193" dy="25" x="109.5"><tspan id="SvgjsTspan1194" style="text-decoration:;">数据转换</tspan></tspan></text></g></g><g id="SvgjsG1195" transform="translate(649.25,25)"><path id="SvgjsPath1196" d="M0 4Q0 0 4 0L269.5 0Q273.5 0 273.5 4L273.5 255.75Q273.5 259.75 269.5 259.75L4 259.75Q0 259.75 0 255.75Z " stroke="none" fill-opacity="1" fill="#464353"></path><g id="SvgjsG1197"><text id="SvgjsText1198" font-family="黑体" text-anchor="middle" font-size="20px" width="0" fill="#ffffff" font-weight="700" align="middle" font-style="" opacity="1" y="114.375" transform="rotate(0)"></text></g></g><g id="SvgjsG1199" transform="translate(709,33.75)"><path id="SvgjsPath1200" d="M0 0L160 0L160 40L0 40Z " stroke="none" fill="none"></path><g id="SvgjsG1201"><text id="SvgjsText1202" font-family="微软雅黑" text-anchor="middle" font-size="20px" width="103" fill="#ffffff" font-weight="700" align="middle" font-style="" opacity="1" y="4.5" transform="rotate(0)"><tspan id="SvgjsTspan1203" dy="25" x="80.5"><tspan id="SvgjsTspan1204" style="text-decoration:;">Forest后端</tspan></tspan></text></g></g><g id="SvgjsG1205" transform="translate(677,93.36328847337961)"><path id="SvgjsPath1206" d="M0 4Q0 0 4 0L214 0Q218 0 218 4L218 63Q218 67 214 67L4 67Q0 67 0 63Z " stroke="none" fill-opacity="1" fill="#25c2a0"></path><g id="SvgjsG1207"><text id="SvgjsText1208" font-family="微软雅黑" text-anchor="middle" font-size="20px" width="93" fill="#ffffff" font-weight="700" align="middle" font-style="" opacity="1" y="18" transform="rotate(0)"><tspan id="SvgjsTspan1209" dy="25" x="109.5"><tspan id="SvgjsTspan1210" style="text-decoration:;">OkHttp 3</tspan></tspan></text></g></g><g id="SvgjsG1211" transform="translate(677,184.875)"><path id="SvgjsPath1212" d="M0 4Q0 0 4 0L214 0Q218 0 218 4L218 63Q218 67 214 67L4 67Q0 67 0 63Z " stroke="none" fill-opacity="1" fill="#25c2a0"></path><g id="SvgjsG1213"><text id="SvgjsText1214" font-family="微软雅黑" text-anchor="middle" font-size="20px" width="105" fill="#ffffff" font-weight="700" align="middle" font-style="" opacity="1" y="18" transform="rotate(0)"><tspan id="SvgjsTspan1215" dy="25" x="109.5"><tspan id="SvgjsTspan1216" style="text-decoration:;">HttpClient</tspan></tspan></text></g></g><g id="SvgjsG1217" transform="translate(345.44717271728246,459.75)"><path id="SvgjsPath1218" d="M0 4Q0 0 4 0L214 0Q218 0 218 4L218 63Q218 67 214 67L4 67Q0 67 0 63Z " stroke="none" fill-opacity="1" fill="#25c2a0"></path><g id="SvgjsG1219"><text id="SvgjsText1220" font-family="微软雅黑" text-anchor="middle" font-size="20px" width="80" fill="#ffffff" font-weight="700" align="middle" font-style="" opacity="1" y="18" transform="rotate(0)"><tspan id="SvgjsTspan1221" dy="25" x="109.5"><tspan id="SvgjsTspan1222" style="text-decoration:;">错误处理</tspan></tspan></text></g></g><g id="SvgjsG1223" transform="translate(683,489.75)"><path id="SvgjsPath1224" d="M0 0L194 0L194 37L0 37Z " stroke="none" fill="none"></path><g id="SvgjsG1225"><text id="SvgjsText1226" font-family="微软雅黑" text-anchor="middle" font-size="20px" width="80" fill="#ffffff" font-weight="700" align="middle" font-style="" opacity="1" y="3" transform="rotate(0)"><tspan id="SvgjsTspan1227" dy="25" x="97.5"><tspan id="SvgjsTspan1228" style="text-decoration:;">远端服务</tspan></tspan></text></g></g><g id="SvgjsG1229" transform="translate(669,388.00585576331014)"><path id="SvgjsPath1230" d="M0 0L112 0L112 34L0 34Z " stroke="none" fill="none"></path><g id="SvgjsG1231"><text id="SvgjsText1232" font-family="微软雅黑" text-anchor="middle" font-size="13px" width="26" fill="#ffffff" font-weight="700" align="middle" font-style="" opacity="1" y="7.05" transform="rotate(0)"><tspan id="SvgjsTspan1233" dy="16" x="56.5"><tspan id="SvgjsTspan1234" style="text-decoration:;">请求</tspan></tspan></text></g></g><g id="SvgjsG1235" transform="translate(778.5,382.00585576331014)"><path id="SvgjsPath1236" d="M0 0L106.5 0L106.5 46L0 46Z " stroke="none" fill="none"></path><g id="SvgjsG1237"><text id="SvgjsText1238" font-family="微软雅黑" text-anchor="middle" font-size="13px" width="26" fill="#ffffff" font-weight="700" align="middle" font-style="" opacity="1" y="13.05" transform="rotate(0)"><tspan id="SvgjsTspan1239" dy="16" x="54"><tspan id="SvgjsTspan1240" style="text-decoration:;">响应</tspan></tspan></text></g></g><g id="SvgjsG1241" transform="matrix(-1.8369701987210297e-16,-1,1,-1.8369701987210297e-16,115.50000000000003,265.86328125)"><path id="SvgjsPath1242" d="M0 10L10 0L10 6.6000000000000005L171.00000000000003 6.6000000000000005L171.00000000000003 13.4L10 13.4L10 20L0 10Z " stroke="none" fill-opacity="1" fill="#ffffff"></path><g id="SvgjsG1243"><text id="SvgjsText1244" font-family="Arial" text-anchor="middle" font-size="17px" width="0" fill="#ff3399" font-weight="700" align="middle" font-style="" opacity="1" y="-3.049999999999999" transform="rotate(0)"></text></g></g><g id="SvgjsG1245" transform="matrix(6.123233995736766e-17,1,-1,6.123233995736766e-17,183.5,89.37499999999999)"><path id="SvgjsPath1246" d="M0 10L10 0L10 6.6000000000000005L171.00000000000003 6.6000000000000005L171.00000000000003 13.4L10 13.4L10 20L0 10Z " stroke="none" fill-opacity="1" fill="#ffffff"></path><g id="SvgjsG1247"><text id="SvgjsText1248" font-family="Arial" text-anchor="middle" font-size="17px" width="0" fill="#ff3399" font-weight="700" align="middle" font-style="" opacity="1" y="-3.049999999999999" transform="rotate(0)"></text></g></g><g id="SvgjsG1249" transform="translate(25,160.3632884733796)"><path id="SvgjsPath1250" d="M0 0L115 0L115 34L0 34Z " stroke="none" fill="none"></path><g id="SvgjsG1251"><text id="SvgjsText1252" font-family="微软雅黑" text-anchor="middle" font-size="13px" width="52" fill="#ffffff" font-weight="700" align="middle" font-style="" opacity="1" y="7.05" transform="rotate(0)"><tspan id="SvgjsTspan1253" dy="16" x="58"><tspan id="SvgjsTspan1254" style="text-decoration:;">方法调用</tspan></tspan></text></g></g><g id="SvgjsG1255" transform="translate(147,160.3632884733796)"><path id="SvgjsPath1256" d="M0 0L112 0L112 34L0 34Z " stroke="none" fill="none"></path><g id="SvgjsG1257"><text id="SvgjsText1258" font-family="微软雅黑" text-anchor="middle" font-size="13px" width="26" fill="#ffffff" font-weight="700" align="middle" font-style="" opacity="1" y="7.05" transform="rotate(0)"><tspan id="SvgjsTspan1259" dy="16" x="56.5"><tspan id="SvgjsTspan1260" style="text-decoration:;">返回</tspan></tspan></text></g></g><g id="SvgjsG1261" transform="matrix(-1,1.2246467991473532e-16,-1.2246467991473532e-16,-1,316.5,314.75)"><path id="SvgjsPath1262" d="M0 10L10 0L10 6.6000000000000005L52.5 6.6000000000000005L52.5 13.4L10 13.4L10 20L0 10Z " stroke="none" fill-opacity="1" fill="#ffffff"></path><g id="SvgjsG1263"><text id="SvgjsText1264" font-family="Arial" text-anchor="middle" font-size="17px" width="0" fill="#ff3399" font-weight="700" align="middle" font-style="" opacity="1" y="-3.049999999999999" transform="rotate(0)"></text></g></g><g id="SvgjsG1265" transform="translate(263.8943454345648,325.52342305324083)"><path id="SvgjsPath1266" d="M0 10L10 0L10 6.6000000000000005L52.5 6.6000000000000005L52.5 13.4L10 13.4L10 20L0 10Z " stroke="none" fill-opacity="1" fill="#ffffff"></path><g id="SvgjsG1267"><text id="SvgjsText1268" font-family="Arial" text-anchor="middle" font-size="17px" width="0" fill="#ff3399" font-weight="700" align="middle" font-style="" opacity="1" y="-3.049999999999999" transform="rotate(0)"></text></g></g><g id="SvgjsG1269" transform="matrix(-1,1.2246467991473532e-16,-1.2246467991473532e-16,-1,646.8028564453125,180.36328125)"><path id="SvgjsPath1270" d="M0 10L10 0L10 6.6000000000000005L52.5 6.6000000000000005L52.5 13.4L10 13.4L10 20L0 10Z " stroke="none" fill-opacity="1" fill="#ffffff"></path><g id="SvgjsG1271"><text id="SvgjsText1272" font-family="Arial" text-anchor="middle" font-size="17px" width="0" fill="#ff3399" font-weight="700" align="middle" font-style="" opacity="1" y="-3.049999999999999" transform="rotate(0)"></text></g></g><g id="SvgjsG1273" transform="translate(594.1971727172825,191.1367115266204)"><path id="SvgjsPath1274" d="M0 10L10 0L10 6.6000000000000005L52.5 6.6000000000000005L52.5 13.4L10 13.4L10 20L0 10Z " stroke="none" fill-opacity="1" fill="#ffffff"></path><g id="SvgjsG1275"><text id="SvgjsText1276" font-family="Arial" text-anchor="middle" font-size="17px" width="0" fill="#ff3399" font-weight="700" align="middle" font-style="" opacity="1" y="-3.049999999999999" transform="rotate(0)"></text></g></g><g id="SvgjsG1277" transform="matrix(-1.8369701987210297e-16,-1,1,-1.8369701987210297e-16,746.5,478.994140625)"><path id="SvgjsPath1278" d="M0 10L10 0L10 6.6000000000000005L171.00000000000003 6.6000000000000005L171.00000000000003 13.4L10 13.4L10 20L0 10Z " stroke="none" fill-opacity="1" fill="#ffffff"></path><g id="SvgjsG1279"><text id="SvgjsText1280" font-family="Arial" text-anchor="middle" font-size="17px" width="0" fill="#ff3399" font-weight="700" align="middle" font-style="" opacity="1" y="-3.049999999999999" transform="rotate(0)"></text></g></g><g id="SvgjsG1281" transform="matrix(6.123233995736766e-17,1,-1,6.123233995736766e-17,814.5,302.505859375)"><path id="SvgjsPath1282" d="M0 10L10 0L10 6.6000000000000005L171.00000000000003 6.6000000000000005L171.00000000000003 13.4L10 13.4L10 20L0 10Z " stroke="none" fill-opacity="1" fill="#ffffff"></path><g id="SvgjsG1283"><text id="SvgjsText1284" font-family="Arial" text-anchor="middle" font-size="17px" width="0" fill="#ff3399" font-weight="700" align="middle" font-style="" opacity="1" y="-3.049999999999999" transform="rotate(0)"></text></g></g></svg>